HIERARCHY
ROOT Hip
{
	OFFSET	0.00  0.00  0.00 
	CHANNELS 6 Xposition Yposition Zposition Xrotation Zrotation Yrotation
	JOINT Abdomen
	{
		OFFSET	0.000000 0.000000 0.000000
		CHANNELS 3 Xrotation Zrotation Yrotation
		JOINT Chest
		{
			OFFSET	0.000000 5.018152 -1.882229
			CHANNELS 3 Xrotation Zrotation Yrotation
			JOINT neckDummy
			{
				OFFSET	0.000000 8.316447 0.784897
				CHANNELS 3 Xrotation Yrotation Zrotation
				JOINT Neck
				{
					OFFSET	0.000000 2.280413 -0.392801
					CHANNELS 3 Xrotation Zrotation Yrotation
					JOINT Head
					{
						OFFSET	0.000000 3.496879 0.529469
						CHANNELS 3 Xrotation Zrotation Yrotation
						End Site
						{
							OFFSET 0.000000 10.353750 0.000000
						}
					}
				}
			}
			JOINT Left Collar
			{
				OFFSET	0.599237 8.316447 0.784897
				CHANNELS 3 Yrotation Zrotation Xrotation
				JOINT Left Shoulder
				{
					OFFSET	6.421198 0.010146 -0.332128
					CHANNELS 3 Zrotation Yrotation Xrotation
					JOINT Left Forearm
					{
						OFFSET	10.552783 0.025574 0.125508
						CHANNELS 3 Yrotation Zrotation Xrotation
						JOINT Left Hand
						{
							OFFSET	11.035963 0.319619 0.041520
							CHANNELS 3 Zrotation Yrotation Xrotation
							End Site
							{
								OFFSET 10.353753 0.000000 0.000000
							}
						}
					}
				}
			}
			JOINT Right Collar
			{
				OFFSET	-0.599237 8.316447 0.784897
				CHANNELS 3 Yrotation Zrotation Xrotation
				JOINT Right Shoulder
				{
					OFFSET	-6.421198 0.010146 -0.332128
					CHANNELS 3 Zrotation Yrotation Xrotation
					JOINT Right Forearm
					{
						OFFSET	-10.552783 0.025574 0.125508
						CHANNELS 3 Yrotation Zrotation Xrotation
						JOINT Right Hand
						{
							OFFSET	-11.035963 0.319619 0.041520
							CHANNELS 3 Zrotation Yrotation Xrotation
							End Site
							{
								OFFSET -10.353753 0.000000 0.000000
							}
						}
					}
				}
			}
		}
	}
	JOINT Left Thigh
	{
		OFFSET	4.500466 -6.400484 -1.832696
		CHANNELS 3 Xrotation Zrotation Yrotation
		JOINT Left Shin
		{
			OFFSET	-1.359117 -18.918689 1.179887
			CHANNELS 3 Xrotation Zrotation Yrotation
			JOINT Left Foot
			{
				OFFSET	-0.652380 -17.215187 -0.312137
				CHANNELS 3 Xrotation Yrotation Zrotation
				End Site
				{
					OFFSET 0.000000 0.000000 10.353752
				}
			}
		}
	}
	JOINT Right Thigh
	{
		OFFSET	-4.500466 -6.400484 -1.832696
		CHANNELS 3 Xrotation Zrotation Yrotation
		JOINT Right Shin
		{
			OFFSET	1.359117 -18.918689 1.179887
			CHANNELS 3 Xrotation Zrotation Yrotation
			JOINT Right Foot
			{
				OFFSET	0.652380 -17.215187 -0.312137
				CHANNELS 3 Xrotation Yrotation Zrotation
				End Site
				{
					OFFSET 0.000000 0.000000 10.353752
				}
			}
		}
	}
}
MOTION
Frames:     15
Frame Time: 0.041667
0.000000 42.534360 0.240040 0.000000 0.000000 0.000000 0.000000 0.000000 0.000000 0.000000 0.000000 0.000000 0.000000 0.000000 0.000000 0.000000 0.000000 0.000000 0.000000 0.000000 0.000000 0.000167 -1.228830 -0.059795 -82.234421 7.384419 -8.802625 -9.566152 -0.527145 -2.928375 0.000000 -0.175781 -0.878906 -1.723730 -0.344218 0.010746 76.662727 -14.072787 -17.940319 7.289384 1.992691 0.088728 -0.001680 -0.001662 0.878903 -8.033053 -0.877320 0.404478 13.319826 -2.275458 -1.257209 -5.246552 0.532660 1.429241 -8.042394 -2.453317 -0.563321 13.163045 1.230263 -0.608912 -5.189688 0.937386 0.392525 
0.000000 43.829521 10.500134 2.124227 -4.259662 -1.397075 -11.545805 3.298959 -1.117275 -18.926594 2.418549 -8.276099 0.000000 0.000000 0.000000 -7.190081 0.493927 -0.884816 -4.968793 -1.082930 -1.055417 0.000167 -1.228830 -0.059795 -49.126274 12.647187 -9.783150 -8.620147 -2.755115 -2.937799 -0.279623 0.646478 13.359016 -1.723730 -0.344218 0.010746 36.401459 -18.573822 -8.286187 7.485638 -1.028718 0.281700 13.378953 -3.026685 -0.890376 4.803424 4.107176 -0.617632 14.234674 -2.111162 -1.291648 -5.213693 1.587034 1.826773 4.500155 1.731132 -0.558604 14.110299 2.040437 0.053863 1.547309 1.433806 -0.547575 
0.000000 44.334578 19.652589 7.385368 -7.923972 -2.707800 -21.000357 6.134497 -2.088328 -32.255981 4.477964 -15.226924 0.000000 0.000000 0.000000 -13.333268 0.930832 -1.661781 -9.197349 -2.021548 -1.888714 0.000167 -1.228830 -0.059795 -22.497154 19.159071 -10.271151 -8.157023 -5.008402 -2.911923 -0.671563 1.253633 25.483530 -1.723730 -0.344218 0.010746 5.595020 -22.735977 -0.777039 8.071095 -3.483811 0.467254 24.959850 -5.337194 -2.060486 9.658285 7.007911 -1.265219 23.239378 -2.283715 -1.845918 2.449803 8.076707 4.395380 1.006838 -3.017378 0.385702 40.587925 0.291856 1.347808 -7.398847 -5.078568 10.570271 
0.000000 43.966211 28.191594 17.198187 -11.023866 -3.699503 -28.424515 8.581215 -2.937901 -38.484474 6.096595 -20.895075 0.000000 0.000000 0.000000 -18.394218 1.314403 -2.352071 -12.662051 -2.823696 -2.460813 0.000167 -1.228830 -0.059795 3.863611 30.166548 -3.834072 -7.695117 -6.811711 -3.187708 -1.062220 2.035830 35.488503 -1.723730 -0.344218 0.010746 -14.160151 -26.598560 3.973478 8.225459 -5.736976 0.632424 34.518871 -7.120859 -3.633856 7.709430 7.699071 -1.684894 35.408890 -2.129450 -2.541845 13.134095 16.427372 8.978940 -1.879956 -16.479500 3.158404 55.847809 -1.080557 1.731320 -3.204119 -9.698356 27.503298 
0.000000 42.534362 36.536367 33.533699 -13.521300 -4.100530 -33.631001 10.666200 -3.675890 -35.240601 7.138920 -25.166401 0.000000 0.000000 0.000000 -22.227100 1.642880 -2.968010 -15.261300 -3.483280 -2.705970 0.000167 -1.228830 -0.059795 36.046341 50.515366 17.100477 -7.308824 -8.874397 -2.950489 -1.218124 2.565875 42.341759 -1.723730 -0.344218 0.010746 -20.459463 -30.105839 4.512726 7.908689 -6.987031 1.036439 41.709991 -8.201622 -4.551982 -0.347615 9.095677 -1.889754 44.211365 -2.155691 -2.931048 14.880689 21.373705 15.607049 -2.256672 -28.698341 4.241045 53.737953 -1.196314 1.600441 13.588965 -14.149498 33.534653 
0.000000 39.893021 44.808127 57.549789 -15.356245 -3.775672 -36.383453 12.369672 -4.296697 -21.002775 7.515220 -27.893263 0.000000 0.000000 0.000000 -24.702713 1.912032 -3.508694 -16.904428 -3.988845 -2.580987 0.000167 -1.228830 -0.059795 76.197083 83.086578 56.298634 -6.941707 -10.483722 -4.435770 -1.326406 2.716322 47.432060 -1.723730 -0.344218 0.010746 -10.317301 -33.410919 0.373286 6.854959 -7.555164 0.973145 46.476116 -8.772590 -5.545611 -17.347643 12.270096 -3.179527 54.221081 -1.656869 -4.057589 -4.943872 20.351196 24.258852 -2.424801 -29.357908 3.706208 44.784149 -0.827269 1.452196 27.499075 -17.387428 23.122797 
0.000000 36.448636 52.015486 84.863060 -16.595503 -3.340592 -37.038670 13.614536 -4.772921 -0.984316 7.522107 -29.291464 0.000000 0.000000 0.000000 -26.124228 2.124238 -3.942858 -17.802340 -4.350168 -2.229717 0.000167 -1.228830 -0.059795 112.688316 116.868675 99.038322 -7.127278 -11.839197 -5.407088 -1.445460 3.059800 49.882580 -1.723730 -0.344218 0.010746 8.938146 -36.147175 -6.286274 5.519604 -7.277337 1.548950 48.621578 -8.842885 -5.591587 -34.193275 14.208308 -4.085704 57.029488 -0.963019 -4.228060 -29.368273 11.887612 29.468307 -8.233584 -22.149902 2.773100 37.758385 -0.109029 1.615493 3.756592 6.365561 14.893709 
0.000000 32.683529 56.762705 109.882797 -17.284714 -3.606113 -35.919075 14.264993 -5.057633 18.300419 7.527278 -29.551653 0.000000 0.000000 0.000000 -26.829218 2.279219 -4.222724 -18.189152 -4.571493 -1.828835 0.000167 -1.228830 -0.059795 123.364937 137.610657 118.846344 -7.238091 -13.003043 -6.028567 -1.561598 2.982120 50.590923 -1.723730 -0.344218 0.010746 29.736284 -37.676289 -11.457878 5.572514 -7.012456 1.535255 49.804317 -7.996843 -5.666188 -42.139568 15.273577 -4.170011 45.258846 -0.982675 -3.580852 -36.830494 2.809825 28.165794 -15.756260 -12.665410 1.567320 25.628391 0.990748 1.190396 -18.347960 -3.317414 17.746716 
0.000000 29.040830 57.353417 126.737999 -17.402300 -5.468680 -33.130199 14.112600 -5.080500 30.247400 7.898220 -28.725401 0.000000 0.000000 0.000000 -27.082100 2.370850 -4.284760 -18.246799 -4.642770 -1.549950 0.000167 -1.228830 -0.059795 85.650681 129.091263 91.990089 -8.698073 -13.799137 -6.377538 -1.770482 2.696972 49.525452 -1.723730 -0.344218 0.010746 43.819225 -37.017773 -12.037204 8.080855 -6.496590 1.370694 48.891827 -6.565221 -5.638521 -32.242405 16.473715 -2.400539 12.858532 -1.705330 -1.530396 -6.949605 -2.524061 24.633383 -20.862206 -4.738950 -0.940303 12.961303 1.227727 0.083513 -11.084498 -13.964660 25.003683 
0.000000 25.753622 53.064919 131.781235 -16.973608 -9.460625 -28.840923 13.054688 -4.816947 29.613384 8.903573 -27.037762 0.000000 0.000000 0.000000 -27.067287 2.392237 -4.088330 -18.105131 -4.563988 -1.525213 0.000167 -1.228830 -0.059795 -8.675459 83.077354 5.814832 -10.958241 -13.941638 -5.547091 -2.284604 2.220562 47.070724 -1.723730 -0.344218 0.010746 45.293839 -31.604559 -4.599919 13.268782 -5.726975 0.160777 46.630360 -3.939951 -5.570076 -22.361540 18.534529 -3.184122 0.186483 -1.755139 -0.510655 59.315151 -4.408263 12.351563 -22.200802 1.466345 -4.921660 9.424826 2.268121 -0.372306 30.258287 -3.194225 20.734917 
0.000000 22.192975 48.540642 132.884796 -16.427176 -14.123852 -24.112640 11.698387 -4.520305 18.702248 10.311857 -25.840921 0.000000 0.000000 0.000000 -26.805820 2.352221 -3.747876 -17.799362 -4.421758 -1.704002 0.000167 -1.228830 -0.059795 -84.151299 33.250748 -67.510445 -13.648152 -14.186549 -4.936266 -2.454320 1.722765 43.737232 -1.723730 -0.344218 0.010746 38.911873 -10.855483 4.501507 18.000275 -5.178721 -1.649043 43.735657 -1.934940 -5.169564 -15.978743 19.321669 -4.393148 -1.319662 -1.677678 -0.606371 98.341980 -13.841929 -9.586462 -21.888605 6.311888 -7.925297 8.340591 2.868507 -0.575555 73.108139 -2.522573 1.871171 
0.000000 17.471539 49.876822 140.660858 -16.293932 -17.523018 -20.220442 10.818245 -4.517623 0.819435 11.797285 -26.853300 0.000000 0.000000 0.000000 -26.259706 2.259073 -3.408272 -17.329475 -4.321574 -2.004560 0.000167 -1.228830 -0.059795 -76.027550 12.940396 -65.159790 -13.620066 -13.211508 -4.824920 -2.194627 1.205016 40.581734 -1.723730 -0.344218 0.010746 31.453428 29.697662 9.328016 18.624865 -5.646434 -2.413613 41.133472 0.055556 -5.422390 -19.559183 20.459799 -4.735662 -0.328033 -1.930900 -1.007191 106.799873 -22.235260 -22.228762 -34.337307 10.643126 -10.527010 18.976122 2.835093 0.268035 79.604385 -3.930692 0.295582 
0.000000 10.560104 63.885911 166.537003 -17.155300 -17.568300 -18.541599 11.247000 -5.171870 -21.581600 13.043500 -32.063301 0.000000 0.000000 0.000000 -25.361900 2.115640 -3.214480 -16.678699 -4.373220 -2.357560 0.000167 -1.228830 -0.059795 -38.318890 14.766603 -33.259174 -9.043234 -11.151135 -4.796861 -1.754859 1.733198 38.123051 -1.723730 -0.344218 0.010746 27.557367 59.552059 12.376622 9.084820 -7.317227 -1.457480 38.846767 0.306678 -5.164274 -66.966820 19.665081 -11.551528 49.970173 -1.717427 -4.685067 9.487714 -13.158723 -7.864382 -70.651466 11.415479 -16.348211 44.447445 1.700358 1.547234 -11.570152 5.610672 22.697372 
0.000000 1.348560 93.577715 215.245224 -19.215256 -12.951508 -19.756512 13.385601 -6.633191 -45.542450 13.708133 -42.080139 0.000000 0.000000 0.000000 -24.103167 1.930771 -3.258109 -15.864999 -4.622362 -2.692712 0.000167 -1.228830 -0.059795 -33.044331 22.990002 -24.489359 1.271113 -7.790527 -6.069607 -0.093017 2.640521 37.091702 -1.723730 -0.344218 0.010746 30.112293 51.575787 15.321661 -11.528594 -10.281176 3.169044 38.314976 -0.707752 -5.166246 -122.923965 15.117468 -8.287019 101.955734 -1.067952 -8.725438 130.213867 4.264380 -20.917917 -121.754448 2.117384 -14.428348 78.500443 -1.894417 2.003308 -231.359406 17.406885 16.837925 
0.000000 -5.778649 122.343741 258.461945 -20.816183 -6.589509 -21.006380 15.462657 -7.970830 -64.041290 13.390716 -50.486027 0.000000 0.000000 0.000000 -22.814209 1.753869 -3.380671 -15.103601 -4.814737 -2.912492 0.000167 -1.228830 -0.059795 -43.818550 25.479090 -29.333456 10.297791 -4.493477 -7.442244 0.885353 3.418878 36.070446 -1.723730 -0.344218 0.010746 35.758648 32.830109 22.426430 -30.652786 -12.964114 7.787161 37.764725 -1.586942 -5.112967 -151.936005 12.791308 7.948807 116.035530 -1.317178 -9.953365 1.150441 -2.769692 27.628199 -156.081223 -6.147886 1.303152 99.695488 -4.560760 1.874460 -11.659080 1.744430 31.110224 
